<svg width="72" height="50" viewBox="0 0 72 50" fill="none" xmlns="http://www.w3.org/2000/svg">
<path d="M11.517 33.5V16.0455H18.4034C19.7216 16.0455 20.8466 16.2812 21.7784 16.7528C22.7159 17.2187 23.429 17.8807 23.9176 18.7386C24.4119 19.5909 24.6591 20.5937 24.6591 21.7472C24.6591 22.9062 24.4091 23.9034 23.9091 24.7386C23.4091 25.5682 22.6847 26.2045 21.7358 26.6477C20.7926 27.0909 19.6506 27.3125 18.3097 27.3125H13.6989V24.3466H17.7131C18.4176 24.3466 19.0028 24.25 19.4688 24.0568C19.9347 23.8636 20.2813 23.5739 20.5085 23.1875C20.7415 22.8011 20.858 22.321 20.858 21.7472C20.858 21.1676 20.7415 20.679 20.5085 20.2812C20.2813 19.8835 19.9318 19.5824 19.4602 19.3778C18.9943 19.1676 18.4063 19.0625 17.696 19.0625H15.2074V33.5H11.517ZM20.9432 25.5568L25.2812 33.5H21.2074L16.9631 25.5568H20.9432ZM35.5938 27.9261V20.4091H39.2244V33.5H35.7386V31.1222H35.6023C35.3068 31.8892 34.8153 32.5057 34.1278 32.9716C33.446 33.4375 32.6136 33.6705 31.6307 33.6705C30.7557 33.6705 29.9858 33.4716 29.321 33.0739C28.6563 32.6761 28.1364 32.1108 27.7614 31.3778C27.392 30.6449 27.2045 29.767 27.1989 28.7443V20.4091H30.8295V28.0966C30.8352 28.8693 31.0426 29.4801 31.4517 29.929C31.8608 30.3778 32.4091 30.6023 33.0966 30.6023C33.5341 30.6023 33.9432 30.5028 34.3239 30.304C34.7045 30.0994 35.0114 29.7983 35.2443 29.4006C35.483 29.0028 35.5994 28.5114 35.5938 27.9261ZM42.0604 33.5V31.3352L48.4695 23.4006V23.3068H42.282V20.4091H52.8416V22.7699L46.8246 30.5085V30.6023H53.0632V33.5H42.0604ZM57.9616 33.7216C57.3991 33.7216 56.9162 33.5227 56.5128 33.125C56.1151 32.7216 55.9162 32.2386 55.9162 31.6761C55.9162 31.1193 56.1151 30.642 56.5128 30.2443C56.9162 29.8466 57.3991 29.6477 57.9616 29.6477C58.5071 29.6477 58.9844 29.8466 59.3935 30.2443C59.8026 30.642 60.0071 31.1193 60.0071 31.6761C60.0071 32.0511 59.9105 32.3949 59.7173 32.7074C59.5298 33.0142 59.2827 33.2614 58.9759 33.4489C58.669 33.6307 58.331 33.7216 57.9616 33.7216Z" fill="white"/>
</svg>
